<svg id="Capa_1" enable-background="new 0 0 512.004 512.004" height="512" viewBox="0 0 512.004 512.004" width="512" xmlns="http://www.w3.org/2000/svg"><g><path d="m127.998 512.004c-10.484 0-17.823-10.583-13.97-20.457l1.81-4.637c7.479-19.166 6.492-40.712-2.708-59.114-8.012-16.024-11.651-33.781-10.718-51.464-18.911 15.052-37.168 22.668-54.41 22.668-8.284 0-15-6.716-15-15s6.716-15 15-15c26.353 0 57.879-35.899 67.803-49.731 4.196-5.85 11.961-7.899 18.495-4.874 6.533 3.025 10 10.259 8.254 17.243l-8.113 32.45c-4.218 16.874-2.258 34.734 5.521 50.291 12.986 25.974 14.38 56.385 3.823 83.437l-1.81 4.637c-2.312 5.925-7.977 9.551-13.977 9.551z" fill="#f4f4f6"/><path d="m384.006 512.004c-6 0-11.665-3.625-13.978-9.551l-1.81-4.637c-10.557-27.052-9.164-57.463 3.823-83.437 7.778-15.557 9.739-33.417 5.521-50.291l-8.112-32.45c-1.748-6.99 1.722-14.235 8.263-17.256 6.542-3.02 14.307-.964 18.495 4.899 9.915 13.82 41.441 49.719 67.794 49.719 8.284 0 15 6.716 15 15s-6.716 15-15 15c-17.242 0-35.5-7.616-54.409-22.669.933 17.683-2.706 35.441-10.719 51.465-9.2 18.401-10.188 39.948-2.708 59.114l1.81 4.637c3.859 9.889-3.498 20.457-13.97 20.457z" fill="#e4e4ff"/><path d="m128.002 33c-70.028 0-127 56.972-127 127 0 33.919 13.696 78.994 34.893 114.832 53.441 90.355 130.198 91.327 184.214 0 21.197-35.838 34.893-80.913 34.893-114.832 0-70.028-56.972-127-127-127z" fill="#acceff"/><path d="m384.002 33c-70.028 0-127 56.972-127 127 0 33.919 13.696 78.994 34.894 114.832 53.441 90.355 130.197 91.327 184.213 0 21.197-35.838 34.894-80.913 34.894-114.832-.001-70.028-56.973-127-127.001-127z" fill="#ffb454"/><path d="m266.612 507.61c-2.93 2.93-6.77 4.39-10.61 4.39-13.311 0-20.024-16.18-10.61-25.61 2.988-2.989 2.988-8.792 0-11.78l-4.46-4.47c-11.47-11.47-14.31-28.93-7.05-43.43l8.7-17.42c2.63-5.25 7.92-8.28 13.42-8.29 10.963-.049 18.456 11.625 13.42 21.71l-8.71 17.41c-1.47 2.94-.9 6.48 1.43 8.81l4.47 4.46c14.628 14.649 14.73 39.469 0 54.22z" fill="#f4f4f6"/><path d="m266.612 507.61c-2.93 2.93-6.77 4.39-10.61 4.39v-111c10.963-.049 18.456 11.625 13.42 21.71l-8.71 17.41c-1.47 2.94-.9 6.48 1.43 8.81l4.47 4.46c14.628 14.649 14.73 39.469 0 54.22z" fill="#e4e4ff"/><path d="m288.792 431h-65.58c-25.155 0-39.134-29.104-23.43-48.74l44.51-55.63c5.981-7.497 17.431-7.507 23.42 0l44.51 55.63c15.711 19.645 1.714 48.74-23.43 48.74z" fill="#d01273"/><path d="m288.792 431h-32.79v-110c4.56 0 8.87 2.07 11.71 5.63l44.51 55.63c15.711 19.645 1.714 48.74-23.43 48.74z" fill="#9d3b6e"/><path d="m399.002 144c0 38.41-15.54 89.49-39.58 130.15-29.31 49.56-66.04 76.85-103.42 76.85-82.133 0-143-130.923-143-207 0-79.4 64.15-144 143-144s143 64.6 143 144z" fill="#ff5e90"/><path d="m399.002 144c0 38.41-15.54 89.49-39.58 130.15-29.31 49.56-66.04 76.85-103.42 76.85v-351c78.85 0 143 64.6 143 144z" fill="#d01273"/></g></svg>